<svg width="10" height="489" xmlns="http://www.w3.org/2000/svg">
 <!-- Created with Method Draw - http://github.com/duopixel/Method-Draw/ -->
 <!-- <g>
  <title>background</title>
  <rect fill="#fff" id="canvas_background" height="491" width="12" y="-1" x="-1"/>
  <g display="none" overflow="visible" y="0" x="0" height="100%" width="100%" id="canvasGrid">
   <rect fill="url(#gridpattern)" stroke-width="0" y="0" x="0" height="100%" width="100%"/>
  </g>
 </g> -->
 <g>
  <title>Layer 1</title>
  <line stroke-linecap="undefined" stroke-linejoin="undefined" id="svg_3" y2="30.434771" x2="5" y1="10" x1="5" stroke-width="1.5" stroke="#000" fill="none"/>
  <line stroke-linecap="undefined" stroke-linejoin="undefined" id="svg_2" y2="60" x2="5" y1="39.999985" x1="5" stroke-width="1.5" stroke="#000" fill="none"/>
  <line stroke="#000" stroke-linecap="undefined" stroke-linejoin="undefined" id="svg_7" y2="90" x2="5" y1="70" x1="5" stroke-width="1.5" fill="none"/>
  <line stroke="#000" stroke-linecap="undefined" stroke-linejoin="undefined" id="svg_6" y2="120" x2="5" y1="100" x1="5" stroke-width="1.5" fill="none"/>
  <line stroke="#000" stroke-linecap="undefined" stroke-linejoin="undefined" id="svg_8" y2="150" x2="5" y1="130" x1="5" stroke-width="1.5" fill="none"/>
  <line stroke="#000" stroke-linecap="undefined" stroke-linejoin="undefined" id="svg_9" y2="180" x2="5" y1="160" x1="5" stroke-width="1.5" fill="none"/>
  <line stroke="#000" stroke-linecap="undefined" stroke-linejoin="undefined" id="svg_10" y2="210" x2="5" y1="190" x1="5" stroke-width="1.5" fill="none"/>
  <line stroke="#000" stroke-linecap="undefined" stroke-linejoin="undefined" id="svg_11" y2="240" x2="5" y1="220" x1="5" stroke-width="1.5" fill="none"/>
  <line stroke="#000" stroke-linecap="undefined" stroke-linejoin="undefined" id="svg_13" y2="270" x2="5" y1="250" x1="5" stroke-width="1.5" fill="none"/>
  <line stroke="#000" stroke-linecap="undefined" stroke-linejoin="undefined" id="svg_14" y2="300" x2="5" y1="280" x1="5" stroke-width="1.5" fill="none"/>
  <line stroke="#000" stroke-linecap="undefined" stroke-linejoin="undefined" id="svg_15" y2="330" x2="5" y1="310" x1="5" stroke-width="1.5" fill="none"/>
  <line stroke="#000" stroke-linecap="undefined" stroke-linejoin="undefined" id="svg_16" y2="360" x2="5" y1="340" x1="5" stroke-width="1.5" fill="none"/>
  <line stroke="#000" stroke-linecap="undefined" stroke-linejoin="undefined" id="svg_17" y2="390.434749" x2="5" y1="370.434749" x1="5" stroke-width="1.5" fill="none"/>
  <line stroke="#000" stroke-linecap="undefined" stroke-linejoin="undefined" id="svg_18" y2="420.452337" x2="5" y1="400.452337" x1="5" stroke-width="1.5" fill="none"/>
  <line stroke="#000" stroke-linecap="undefined" stroke-linejoin="undefined" id="svg_19" y2="450.452337" x2="5" y1="430.452337" x1="5" stroke-width="1.5" fill="none"/>
  <line stroke="#000" stroke-linecap="undefined" stroke-linejoin="undefined" id="svg_20" y2="480.384573" x2="5" y1="460.384573" x1="5" stroke-width="1.5" fill="none"/>
 </g>
</svg>