<?xml version="1.0" encoding="UTF-8" standalone="no"?> <!-- Created with Vectornator for iOS (http://vectornator.io/) --><!DOCTYPE svg PUBLIC "-//W3C//DTD SVG 1.1//EN" "http://www.w3.org/Graphics/SVG/1.1/DTD/svg11.dtd">
<svg height="100%" style="fill-rule:evenodd;clip-rule:evenodd;stroke-linecap:round;stroke-linejoin:round;" xmlns:xlink="http://www.w3.org/1999/xlink" xmlns="http://www.w3.org/2000/svg" xml:space="preserve" width="100%" xmlns:vectornator="http://vectornator.io" version="1.1" viewBox="0 0 1920 1080">
<metadata>
<vectornator:setting key="DisplayWhiteBackground" value="0"/>
<vectornator:setting key="RulersVisible" value="1"/>
<vectornator:setting key="SnapToEdges" value="0"/>
<vectornator:setting key="Units" value="Pixels"/>
<vectornator:setting key="New" value="1"/>
<vectornator:setting key="DynamicGuides" value="0"/>
<vectornator:setting key="SnapToPoints" value="0"/>
<vectornator:setting key="SnapToGrid" value="0"/>
<vectornator:setting key="SnapToGuides" value="1"/>
<vectornator:setting key="GridSpacing" value="36"/>
</metadata>
<defs/>
<g id="Layer 5" vectornator:layerName="Layer 5">
    <path stroke="#ff0000" stroke-width="2.84" d="M51.3467+624.038C-0.873819+668.394+59.3634+663.691+88.1363+645.045C112.828+629.042+138.084+595.606+155.501+572.527C190.368+526.327+214.426+474.105+254.019+431.403C260.535+424.375+281.105+400.685+293.128+412.244C304.6+423.273+297.217+447.66+295.683+460.859C292.145+491.31+288.276+526.327+289.932+556.735C291.016+576.644+288.562+594.891+288.586+614.67C288.592+620.147+287.644+626.723+288.483+632.113C288.685+633.41+290.982+636.19+289.714+635.853C282.193+633.861+283.361+588.005+282.677+579.99C278.73+533.705+281.164+477.113+306.002+436.232C312.632+425.319+329.626+401.304+345.995+407.774C363.652+414.753+358.283+447.69+359.631+461.948C363.307+500.816+361.023+539.106+355.661+577.255C353.215+594.651+358.533+610.093+355.476+627.184C354.691+631.569+351.044+619.117+350.787+614.67C350.413+608.226+353.207+601.963+353.716+595.528C353.956+592.497+353.387+557.143+353.403+556.527C354.653+507.648+352.741+463.211+390.746+428.426C398.24+421.567+409.786+410.413+420.998+412.128C432.276+413.853+431.978+465.336+430.931+473.672C425.327+518.271+396.992+569.039+412.228+614.291C415.462+623.898+422.209+626.342+430.854+627.003C464.473+629.574+459.415+593.566+484.007+578.251C489.513+574.822+506.161+581.486+506.751+580.969C509.692+578.394+499.563+584.243+495.715+584.934C485.116+586.837+483.055+582.284+474.208+587.823C463.279+594.666+466.869+618.863+471.611+628.323C479.37+643.806+518.547+604.96+503.591+582.921C501.462+579.784+504.989+593.297+505.221+595.774C506.696+611.57+507.085+619.64+523.674+619.55C546.721+619.426+546.302+602.219+547.3+582.691C547.414+580.461+551.97+584.369+552.871+586.412C556.603+594.88+552.254+609.664+550.417+617.916C549.761+620.861+549.625+623.904+548.983+626.851C548.555+628.818+546.075+634.135+547.488+632.701C561.356+618.625+546.776+569.438+583.812+573.135C606.021+575.351+584.783+619.919+595.509+628.405C622.595+649.831+644.3+562.323+675.644+582.249C681.115+585.727+663.323+586.302+657.064+587.989C646.618+590.806+633.212+608.082+636.21+619.565C638.874+629.766+661.507+634.005+667.758+625.26C673.259+617.563+677.449+601.819+676.346+592.478C675.638+586.487+669.972+588.475+671.086+589.108C681.027+594.751+695.975+596.53+706.323+592.034C709.037+590.855+711.154+581.938+711.565+584.869C712.782+593.541+694.661+626.759+710.175+634.126C725.642+641.472+751.966+638.116+755.27+619.02C756.661+610.981+757.921+602.487+757.803+594.32C757.789+593.351+756.801+591.413+757.77+591.413C762.06+591.413+765.496+624.876+784.423+623.907C803.607+622.925+816.683+607.391+829.767+595.185C855.017+571.63+909.157+508.95+902.466+470.313C896.311+434.778+867.358+442.086+860.055+474.57C847.971+528.324+828.547+585.336+829.652+640.835C829.791+647.784+825.064+626.603+827.501+620.094C831.655+608.997+850.922+575.318+868.951+583.241C884.017+589.862+870.976+605.397+862.255+609.302C841.99+618.377+838.492+601.516+856.565+618.898C858.503+620.761+859.92+623.371+862.354+624.511C888.655+636.838+925.123+623.915+949.584+614.577C1014.52+589.787+1092.87+536.155+1124.76+471.491C1138.1+444.429+1162.11+361.9+1119.06+348.42C1086.58+338.249+1075.79+374.44+1068.2+399.233C1052.79+449.614+1053.52+505.278+1044.27+557.127C1040.45+578.502+1040.64+600.518+1039.02+622.19C1037.91+637.09+1038.88+625.474+1040.41+636.078C1040.67+637.867+1042.59+642.854+1041.54+641.379C1026.99+620.814+1048.67+570.697+1065.75+556.122C1071+551.636+1085.49+542.743+1093.14+549.07C1110.29+563.247+1098.98+583.373+1082.18+589.811C1070.7+594.211+1062.03+590.68+1051.65+587.047C1049.67+586.353+1056.32+587.206+1057.7+588.781C1060.46+591.904+1060.95+596.45+1062.54+600.301C1067.33+611.946+1076.21+634.204+1088.65+640.207C1136.46+663.276+1142.5+585.245+1174.55+587.076C1185.34+587.692+1193.3+604.5+1182.33+604.216C1162.87+603.711+1150.16+590.287+1140.74+616.576C1139.8+619.22+1137.53+621.902+1138.24+624.619C1143.68+645.476+1184.57+610.957+1176.15+599.102C1175.06+597.57+1178.41+602.106+1179.5+603.638C1184.58+610.785+1187.99+619.018+1198.55+620.455C1217.6+623.045+1216.17+605.635+1220.91+593.557C1222.27+590.111+1225.09+599.925+1225.72+603.575C1226.99+611.045+1225.54+618.758+1226.27+626.299C1228.34+647.516+1230.91+668.736+1232.7+689.965C1233.16+695.407+1234.59+701.719+1235.43+707.1C1235.63+708.367+1235.85+711.952+1236.43+710.812C1238.17+707.423+1231.36+709.429+1230.34+704.793C1228.2+695.104+1227.11+684.561+1226.41+674.688C1225.63+663.455+1229.66+653.989+1230.59+642.982C1232.6+619.489+1220.94+584.239+1257.77+579.438C1273.33+577.408+1290.91+596.784+1279.87+611.026C1262.77+633.097+1248.41+625.131+1228.46+620.208C1224.27+619.174+1237.47+617.268+1241.36+619.121C1254.98+625.595+1264.55+632.069+1279.82+622.682C1288.4+617.408+1301.17+603.627+1303.83+593.783C1304.83+590.095+1298.71+579.649+1301.06+582.664C1302.9+585.034+1307.03+585.224+1308.39+587.901C1310.81+592.658+1306.08+613.23+1306.01+615.065C1305.34+633.803+1308.47+653.575+1308.36+672.814C1308.3+682.947+1307.63+692.969+1309.82+702.704C1310.74+706.806+1313.02+719.207+1312.38+715.051C1311.97+712.337+1307.16+712.763+1305.43+710.63C1301.45+705.713+1310.15+658.604+1309.41+649.281C1307.55+625.792+1294.43+607.772+1303.72+581.238C1309.1+565.877+1334.8+559.669+1345.69+572.264C1368.85+599.056+1325.64+635.27+1300.86+614.048C1295.53+609.491+1311.76+604.643+1315.54+606.431C1328.23+612.429+1329.65+627.983+1344.17+630.044C1366.73+633.246+1403.98+622.555+1417.58+604.932C1446.98+566.847+1396.13+547.885+1392.2+605.489C1391.65+613.505+1408.41+621.666+1413.92+623.849C1421.16+626.718+1428.59+628.213+1436.06+630.171C1449.03+633.572+1462.1+635.079+1475.14+638.339C1491.17+642.348+1513.74+636.535+1530.07+634.819C1567.66+630.871+1643.7+619.053+1670.3+591.532C1713.83+546.497+1588.74+564.455+1645.51+575.304L1645.51+575.543C1629.53+584.801+1616.14+571.82+1630.98+558.977C1648.63+543.708+1695.6+558.151+1684.7+586.84C1674.5+613.708+1635.73+620.481+1612.18+628.854C1552.75+649.985+1461.02+666.01+1403.08+628.459C1395.72+623.688+1388.45+618.614+1385.54+609.965C1382.08+599.706+1387.9+589.402+1391.62+580.133C1405.17+546.362+1449.93+565.343+1431.52+596.753C1429.17+600.761+1425.61+609.215+1422.82+612.779C1407.35+632.529+1363.38+644.311+1339.24+637.09C1323.57+632.404+1326.96+621.957+1315.54+614.188C1311.74+611.605+1302.13+602.404+1304.06+606.571C1306.41+611.634+1316.58+610.128+1320.28+610.376C1347.36+612.193+1351.41+569.173+1328.87+573.573C1291.02+580.96+1320.34+648.456+1317.32+674.853C1316.67+680.572+1317.47+709.481+1314.02+713.491C1311.68+716.209+1304.7+721.336+1304.16+717.792C1299.63+688.202+1303.65+657.427+1300.2+627.567C1298.75+615.004+1299.67+601.435+1302.34+589.11C1303.07+585.756+1304.66+577.102+1306.76+579.811C1328.24+607.41+1257.65+657.671+1231.37+621.655C1223.81+611.29+1271.62+626.315+1279.26+605.033C1284.2+591.295+1258.5+583.903+1250.14+586.093C1232.74+590.653+1232.87+672.544+1234.6+685.379C1235.48+691.974+1244.05+715.148+1231.35+714.854C1224.15+714.687+1224.23+684.192+1224+680.622C1222.73+660.317+1209.22+621.406+1219.31+602.507C1220.99+599.36+1225.71+598.403+1227.02+595.083C1227.79+593.124+1226+599.168+1225.4+601.185C1224.28+604.963+1223.62+608.901+1222.12+612.543C1219.63+618.562+1213.39+625.294+1207.18+627.109C1183.48+634.03+1164.71+593.7+1180.25+597.747C1181.85+598.162+1181.87+603.07+1181.49+604.119C1175.97+619.503+1159.9+651.144+1137.95+631.234C1126.1+620.484+1139.58+599.537+1151.28+594.215C1156.64+591.778+1187.1+598.48+1184.41+595.933C1175+587.018+1160.1+600.843+1154.27+607.344C1136.43+627.239+1137.35+655.44+1097.36+648.381C1075.41+644.506+1063.55+622.551+1056.88+602.874C1051.57+587.201+1052.59+581.163+1053.23+581.243C1066.65+582.925+1085.96+589.941+1095.78+573.424C1102.02+562.924+1090.93+549.618+1079.19+554.611C1062.21+561.837+1052.15+585.175+1048.56+602.123C1045.64+615.956+1048.26+633.178+1037.9+644.835C1035.77+647.235+1032.94+640.048+1032.49+636.87C1031.01+626.461+1030.13+634.018+1030.97+621.687C1032.86+594.018+1035.41+567.339+1040.45+540.034C1051.22+481.66+1048.82+419.851+1076.37+366.009C1088.14+342.997+1108.22+332.51+1132.15+348.173C1154.13+362.556+1150.18+395.358+1147.83+417.784C1140.62+486.511+1083.5+544.058+1029.55+582.77C993.144+608.897+943.436+631.337+898.199+633.563C880.868+634.416+854.386+633.252+845.728+614.534C844.394+611.651+846.418+603.074+844.021+605.158C840.284+608.41+854.147+606.972+858.878+605.502C862.646+604.331+879.993+594.052+869.625+587.956C854.604+579.123+835.774+612.379+832.582+620.875C830.062+627.581+824.473+647.997+824.616+640.835C825.742+584.26+841.818+527.661+855.264+472.773C860.398+451.814+892.675+418.204+904.317+453.943C921.682+507.253+868.841+566.346+833.222+599.269C818.908+612.5+798.231+636.169+776.055+626.739C767.033+622.903+747.605+591.413+762.767+591.413C763.959+591.413+759.65+621.245+759.453+621.949C754.135+640.985+731.07+645.7+713.95+640.024C688.354+631.538+705.213+575.051+715.942+586.328C717.315+587.77+714.958+590.304+713.741+591.88C704.708+603.571+673.139+602.641+672.114+584.996C671.914+581.558+681.076+589.555+681.39+593.254C682.1+601.627+681.631+605.366+678.471+612.904C671.824+628.759+650.781+646.224+635.737+626.839C624.164+611.926+641.101+587.42+657.064+583.207C658.607+582.8+687.065+586.955+667.929+581.855C657.048+578.955+649.451+595.002+644.584+601.558C631.04+619.802+621.473+635.126+596.66+633.079C572.009+631.045+606.039+573.062+576.927+578.9C561.057+582.082+551.651+647.766+542.787+631.526C540.565+627.455+547.964+611.381+548.59+607.402C548.788+606.143+548.756+589.032+549.033+587.692C551.681+574.872+554.508+616.155+538.107+622.861C514.287+632.6+502.316+617.143+500.745+595.774C500.571+593.4+499.472+579.884+504.943+580.062C513.763+580.349+508.896+602.954+508.143+606.768C504.742+623.993+487.914+640.864+469.025+631.649C455.634+625.117+463.673+589.117+473.615+583.374C480.082+579.637+518.479+584.847+497.413+580.286C466.839+573.666+462.057+662.003+416.873+627.65C384.278+602.869+422.311+506.601+426.769+473.672C427.698+466.811+425.9+417.033+422.166+416.021C406.597+411.804+383.296+442.038+375.875+451.707C351.555+483.396+361.761+557.237+358.624+596.019C357.202+613.605+353.473+611.872+351.051+625.414C350.334+629.421+353.787+617.584+353.797+613.513C353.823+602.932+354.268+612.77+352.328+601.728C349.569+586.02+352.774+576.063+355.271+560.78C361.369+523.468+355.865+483.606+354.252+446.166C353.836+436.502+357.461+406.083+338.167+411.5C289.057+425.287+284.16+542.092+287.212+579.578C287.986+589.086+298.3+631.849+285.989+637.095C282.634+638.524+284.246+629.946+284.215+626.299C284.055+607.763+288.103+589.353+287.194+571.174C285.377+534.88+287.324+496.627+291.649+460.321C292.96+449.308+300.451+425.499+291.297+415.906C280.111+404.182+255.851+436.554+249.177+444.497C214.63+485.616+191.549+532.824+158.555+575.412C140.441+598.794+114.815+632.293+89.2826+648.254C55.7979+669.187-2.81666+666.329+50.4855+622.746" fill="#ff0000" stroke-linecap="butt" opacity="1" stroke-linejoin="round"/>
</g>
</svg>
